<?xml version="1.0" standalone="no"?>
<!DOCTYPE svg PUBLIC "-//W3C//DTD SVG 20010904//EN"
 "http://www.w3.org/TR/2001/REC-SVG-20010904/DTD/svg10.dtd">
<svg version="1.0" xmlns="http://www.w3.org/2000/svg"
 width="300.000000pt" height="277.000000pt" viewBox="0 0 300.000000 277.000000"
 preserveAspectRatio="xMidYMid meet">
<metadata>
Created by potrace 1.10, written by Peter Selinger 2001-2011
</metadata>
<g transform="translate(0.000000,277.000000) scale(0.100000,-0.100000)"
fill="#000000" stroke="none">
<path d="M2331 2676 c-20 -86 -24 -93 -45 -89 -12 3 -32 -4 -46 -15 -21 -17
-22 -22 -11 -36 18 -21 33 -20 64 4 18 15 28 37 38 85 14 69 25 81 35 39 5
-18 1 -37 -11 -58 l-18 -31 21 19 c30 26 34 63 14 123 l-18 52 -23 -93z"/>
<path d="M1910 2692 c0 -4 8 -34 19 -68 l18 -61 -91 -11 c-50 -7 -122 -15
-161 -18 l-70 -6 -40 41 c-21 23 -42 41 -45 41 -4 0 -7 -19 -8 -42 -1 -23 -3
-42 -4 -44 -2 -1 -78 -6 -170 -11 -131 -6 -169 -5 -173 5 -2 6 2 12 9 12 17 0
46 33 46 53 0 26 -16 28 -45 5 -23 -18 -26 -27 -22 -55 l6 -33 -72 0 c-77 0
-314 -16 -386 -26 -29 -4 -41 -2 -37 5 4 6 2 19 -3 28 -10 17 -10 17 -11 1 0
-10 -4 -18 -10 -18 -5 0 -10 8 -11 18 -1 9 -6 2 -11 -15 -9 -28 -15 -33 -44
-33 -18 0 -35 -4 -38 -8 -3 -5 15 -6 40 -2 38 6 44 5 39 -9 -2 -9 0 -23 5 -31
8 -13 10 -12 10 3 0 9 5 17 10 17 6 0 10 -8 11 -17 0 -13 3 -12 10 5 5 13 7
27 4 32 -6 9 96 18 300 25 83 4 160 8 172 11 16 3 23 -3 31 -25 l10 -29 -101
-7 c-56 -4 -106 -6 -112 -4 -5 1 -30 0 -55 -4 -104 -14 -161 -16 -159 -4 4 33
-1 40 -16 21 -14 -19 -14 -19 -15 1 -1 16 -4 15 -12 -7 -10 -29 -18 -32 -137
-43 l-63 -6 8 48 c10 60 8 97 -6 123 -20 37 -32 10 -29 -64 5 -110 4 -111
-101 -125 -50 -7 -90 -15 -90 -18 0 -6 124 5 153 13 15 5 16 2 6 -23 -23 -62
12 -120 78 -127 22 -2 29 -9 31 -30 4 -33 -13 -56 -41 -56 -16 0 -18 3 -9 12
18 18 14 38 -8 38 -25 0 -36 -25 -20 -45 15 -18 64 -20 78 -2 6 7 12 33 14 57
2 31 7 44 16 42 7 -1 83 5 168 14 86 8 158 13 161 10 4 -3 -7 -6 -24 -6 -45 0
-83 -50 -48 -64 26 -10 66 13 76 44 6 17 18 30 27 30 38 0 453 20 530 25 78 6
82 5 82 -14 0 -29 35 -27 66 4 19 19 35 25 67 25 127 0 429 53 485 86 15 8 18
12 7 9 -104 -34 -264 -60 -487 -79 l-58 -5 0 30 c0 21 5 29 18 29 43 0 277 31
374 50 150 29 382 109 366 126 -4 3 -23 -3 -45 -14 -102 -52 -322 -103 -553
-127 -74 -8 -140 -15 -147 -15 -8 0 -10 16 -6 54 4 34 2 56 -6 60 -23 14 -10
23 37 25 26 1 92 8 146 16 113 17 142 9 94 -27 -34 -24 -39 -68 -8 -68 11 0
27 11 36 26 14 20 15 32 6 60 -8 27 -7 34 3 34 7 0 16 -6 18 -12 4 -9 6 -8 6
2 1 9 24 22 62 33 34 10 59 20 56 24 -3 3 -27 -2 -53 -11 -59 -20 -64 -20 -64
-1 0 9 -20 35 -45 59 -25 25 -45 41 -45 38z m70 -93 c13 -24 13 -29 -5 -29
-12 0 -35 36 -35 55 0 11 32 -9 40 -26z m-410 -54 l23 -25 -25 0 c-21 0 -25 5
-25 25 0 14 0 25 2 25 1 0 12 -11 25 -25z m-1041 -58 c0 -33 -2 -38 -9 -22
-12 28 -12 78 0 70 6 -3 10 -25 9 -48z m1100 -3 c28 -36 29 -104 2 -104 -10 0
-40 -3 -67 -7 -42 -5 -47 -4 -37 8 6 8 13 37 14 64 3 63 4 65 39 65 19 0 35
-9 49 -26z m-99 -19 c0 -26 -4 -35 -17 -35 -22 0 -53 -29 -53 -50 0 -14 -14
-17 -97 -19 -54 -1 -106 -4 -115 -7 -20 -6 -22 4 -8 40 9 24 14 26 82 27 40 1
87 5 103 10 20 5 -5 7 -72 5 -78 -2 -103 0 -103 10 0 7 -3 19 -6 28 -6 16 5
17 224 24 l62 2 0 -35z m-300 -6 c0 -37 -21 -35 -31 4 -6 22 -4 27 12 27 15 0
19 -7 19 -31z m-20 -86 c0 -22 -4 -23 -72 -25 l-73 -2 80 -5 c44 -3 121 -3
170 0 50 4 145 9 213 12 l122 6 0 -24 c0 -31 -10 -33 -260 -45 -113 -5 -259
-13 -324 -16 -108 -6 -119 -5 -113 9 3 9 9 39 13 66 l6 49 97 7 c53 3 103 7
111 9 19 3 30 -12 30 -41z m-253 5 c-3 -13 -9 -44 -12 -70 l-7 -48 -42 0 c-23
0 -96 -7 -161 -15 -66 -8 -121 -15 -122 -15 -1 0 0 13 3 29 6 31 -22 71 -50
71 -12 0 -31 29 -24 35 9 7 189 15 185 8 -2 -4 -1 -17 4 -28 6 -17 8 -17 8 -2
1 19 21 24 22 5 0 -7 5 -1 10 14 10 26 15 27 82 31 40 1 80 4 91 5 14 2 17 -3
13 -20z m-423 -34 c4 -9 0 -24 -9 -34 -19 -21 -19 -44 -1 -59 11 -9 12 -7 9
13 -8 41 14 38 25 -4 9 -36 8 -40 -9 -40 -44 0 -69 56 -53 118 7 26 29 29 38
6z m62 -70 c7 -26 -4 -50 -16 -37 -4 4 -11 23 -15 40 -5 28 -4 32 9 27 9 -3
19 -17 22 -30z m334 -54 c0 -12 -34 -30 -57 -30 -16 1 -15 3 6 20 25 21 51 26
51 10z"/>
<path d="M2381 1814 c-19 -8 -32 -17 -29 -19 3 -3 18 1 34 10 82 42 174 -13
174 -103 0 -46 -56 -130 -107 -163 -67 -42 -59 -50 -88 83 l-18 77 -87 -44
-88 -44 13 -63 c8 -35 16 -70 20 -79 7 -18 -17 -22 -188 -35 -71 -6 -91 -4
-98 7 -7 11 -9 11 -9 -3 0 -10 -7 -18 -15 -18 -18 0 -18 1 -6 34 7 17 15 23
29 20 23 -6 68 28 58 44 -10 17 -51 15 -66 -3 -10 -12 -38 -15 -130 -15 l-118
0 -12 65 c-7 36 -16 68 -21 71 -12 7 -11 0 5 -70 l14 -59 -86 7 c-79 6 -343
37 -350 41 -1 1 3 16 9 33 9 25 7 41 -9 84 l-20 53 -18 -83 c-12 -51 -23 -81
-30 -78 -6 2 -65 10 -130 17 l-119 13 -53 50 -52 49 0 -42 0 -41 -95 0 c-69 0
-95 3 -95 13 0 8 -4 7 -10 -3 -9 -13 -11 -13 -20 0 -5 8 -10 10 -10 4 0 -10
-129 -40 -134 -32 -2 2 -9 21 -17 43 -20 53 -34 46 -34 -15 1 -49 1 -49 -43
-66 -24 -9 -41 -18 -39 -20 3 -3 24 3 47 12 34 14 44 14 50 4 15 -24 -9 -64
-48 -82 -149 -69 -217 -226 -162 -371 12 -32 23 -57 25 -55 2 2 -6 35 -17 74
-26 87 -20 140 25 215 28 47 122 129 148 129 5 0 6 -12 3 -27 -8 -41 12 -82
46 -96 l30 -13 -35 -13 c-139 -50 -183 -241 -69 -302 38 -20 114 -18 148 4 15
10 25 21 23 24 -3 3 -16 -2 -29 -11 -13 -9 -43 -16 -70 -16 -41 0 -54 5 -85
33 -32 30 -36 39 -36 79 1 56 21 95 68 137 36 31 95 61 121 61 9 0 14 -11 14
-30 0 -34 -34 -60 -53 -41 -8 8 -8 11 1 11 7 0 12 7 12 16 0 9 -7 14 -17 12
-23 -4 -23 -38 -1 -51 12 -8 24 -8 42 1 22 10 26 18 26 51 l0 39 68 8 c37 4
123 2 192 -4 122 -11 125 -11 143 9 9 12 17 30 17 41 0 17 5 19 33 14 235 -44
566 -75 807 -77 122 0 358 23 383 38 5 3 13 -1 18 -8 7 -12 14 -11 42 4 27 15
33 23 29 43 -6 32 -35 31 -60 -1 -21 -26 -58 -34 -234 -49 l-66 -6 27 29 c25
27 36 30 139 41 61 6 150 19 197 29 68 14 85 14 85 4 0 -7 11 -13 26 -13 19 0
28 7 37 30 7 17 23 34 41 42 44 18 104 75 128 122 24 46 28 109 9 144 -30 55
-111 76 -180 46z m-24 -221 c6 -32 14 -65 17 -73 4 -10 -3 -19 -21 -27 -44
-19 -123 -36 -131 -28 -4 3 -12 29 -18 56 l-11 50 71 39 c39 22 74 40 77 40 3
0 10 -26 16 -57z m-1152 27 c9 -27 -3 -60 -21 -60 -16 0 -17 5 -8 49 7 35 20
40 29 11z m-650 -64 c2 -33 1 -34 -49 -39 -28 -3 -58 -8 -67 -12 -20 -8 -29
12 -22 47 5 24 11 27 67 35 33 5 63 7 66 6 2 -2 5 -19 5 -37z m189 38 c44 -6
46 -8 46 -39 l0 -32 -110 1 c-105 1 -134 7 -89 19 12 3 18 10 14 17 -23 36 28
49 139 34z m138 -31 c49 -47 37 -60 -44 -47 -35 6 -38 9 -38 40 0 30 3 34 27
34 16 0 39 -11 55 -27z m168 -3 c95 -11 129 -20 74 -20 -32 0 -54 -15 -54 -37
0 -18 55 -16 74 3 9 8 16 21 16 28 0 10 16 10 83 0 45 -7 154 -20 242 -29 143
-15 174 -23 175 -45 0 -3 -12 -11 -27 -17 -30 -14 -84 -16 -187 -6 -66 6 -69
7 -82 40 -13 30 -32 49 -21 21 2 -7 7 -22 11 -34 l6 -21 -132 18 c-73 10 -171
24 -218 32 l-85 13 -6 38 c-6 35 -4 37 15 32 12 -3 64 -10 116 -16z m-312 -71
c-10 -5 -18 -18 -18 -29 0 -15 -6 -17 -37 -13 -21 3 -72 0 -113 -6 -47 -6 -78
-7 -84 -1 -6 6 -18 10 -27 10 -14 0 -29 18 -29 35 0 7 68 12 195 13 93 1 125
-2 113 -9z m135 -4 c32 -5 37 -10 37 -32 0 -25 -2 -26 -46 -19 -26 3 -58 6
-72 6 -24 0 -24 1 -9 18 10 10 17 23 17 29 0 6 8 10 18 8 9 -2 34 -7 55 -10z
m1017 1 c0 -1 -5 -17 -11 -35 l-11 -31 -98 0 -98 0 -4 35 -4 35 113 0 c62 0
113 -2 113 -4z m-1465 -26 c3 -10 -1 -30 -10 -43 -14 -22 -14 -25 3 -40 17
-16 18 -15 16 13 -1 17 0 30 3 30 4 0 33 -65 33 -75 0 -13 -42 -3 -60 15 -29
29 -28 120 1 120 4 0 10 -9 14 -20z m675 -9 c69 -11 157 -23 195 -27 75 -7 95
-16 95 -44 0 -18 18 -20 -370 33 -93 12 -95 13 -98 41 -3 26 -1 28 25 22 15
-3 84 -14 153 -25z m-616 -40 c12 -13 16 -27 11 -42 -7 -23 -8 -23 -22 4 -8
15 -11 31 -8 36 3 5 -1 12 -7 14 -8 3 -8 6 -2 6 6 1 19 -8 28 -18z m319 6 c54
-7 96 -16 95 -22 -2 -5 -9 -10 -17 -12 -7 -1 -23 -11 -35 -22 -21 -19 -28 -20
-126 -12 -58 5 -131 6 -162 2 -53 -6 -56 -6 -47 11 6 11 7 27 4 38 -5 15 0 19
22 23 54 8 169 5 266 -6z m795 -28 c4 -11 36 -12 46 -2 4 4 54 8 111 8 l104 1
-6 -25 c-3 -14 -7 -28 -9 -30 -4 -5 -426 19 -435 25 -4 2 -9 13 -12 25 -5 20
-4 20 96 13 56 -3 104 -11 105 -15z"/>
<path d="M2671 1524 c-89 -166 -352 -267 -736 -282 -193 -7 -174 -19 34 -21
272 -3 512 73 643 202 47 47 92 119 86 138 -2 5 -14 -11 -27 -37z"/>
<path d="M1368 1306 c-11 -26 -5 -56 12 -56 16 0 50 39 50 58 -1 13 -5 11 -21
-10 -28 -37 -43 -36 -24 2 9 18 11 30 5 30 -6 0 -15 -11 -22 -24z"/>
<path d="M2510 862 c-83 -45 -106 -171 -43 -234 22 -22 43 -32 76 -35 41 -5
49 -2 77 25 40 40 42 98 5 139 l-26 28 21 -35 c27 -47 26 -85 -5 -115 -33 -34
-92 -34 -128 -1 -90 84 3 245 128 222 95 -18 154 -149 112 -249 -57 -134 -343
-227 -608 -198 -145 15 -161 18 -315 46 -75 14 -139 24 -141 22 -2 -3 27 -10
64 -17 62 -12 65 -14 41 -22 -31 -11 -37 -35 -12 -45 22 -8 64 13 64 33 0 10
5 14 15 10 9 -3 46 -11 83 -18 37 -6 69 -13 70 -14 2 -1 7 -19 12 -39 8 -34 7
-36 -13 -32 -12 3 -71 16 -132 28 -60 13 -112 25 -115 28 -3 3 -12 7 -20 7 -8
1 -82 15 -165 32 -82 17 -169 34 -192 37 -35 6 -43 11 -43 28 -1 12 -7 44 -14
71 l-13 50 -17 -71 -17 -70 -112 -6 c-76 -3 -144 -14 -212 -32 -106 -29 -372
-59 -390 -43 -5 4 -10 37 -10 72 -1 61 -19 126 -35 126 -17 0 -20 -55 -5 -99
14 -42 14 -51 1 -83 -14 -33 -20 -37 -88 -53 -134 -33 -322 -111 -383 -159
-11 -9 20 4 70 29 98 50 277 111 346 120 l44 5 -35 -11 c-19 -6 -64 -20 -100
-31 -59 -18 -155 -66 -148 -74 2 -1 30 11 63 27 101 50 215 74 215 45 0 -8 9
-24 19 -37 l19 -24 -37 -24 c-57 -39 -148 -120 -178 -160 -19 -26 -8 -18 42
28 110 102 182 151 222 151 33 0 34 -1 31 -38 -3 -33 -6 -37 -33 -40 -27 -3
-28 -2 -13 10 12 9 15 18 9 27 -8 12 -12 12 -25 2 -22 -18 -20 -28 8 -46 19
-13 29 -14 45 -5 25 13 37 52 23 76 -15 27 17 72 68 96 42 19 51 20 125 10 44
-7 195 -43 335 -81 140 -37 270 -72 288 -75 30 -7 31 -9 17 -29 -19 -27 -19
-46 0 -54 20 -7 55 24 55 49 0 14 5 18 18 13 70 -22 198 -37 332 -40 85 -1
198 -8 250 -15 52 -7 121 -10 153 -6 54 5 78 -6 39 -19 -28 -8 -45 -50 -27
-65 22 -18 68 31 60 63 -6 22 -3 25 42 31 29 4 49 2 51 -4 6 -16 34 -12 56 9
12 11 44 26 71 34 80 24 197 73 312 131 170 85 165 94 -7 12 -136 -65 -317
-136 -348 -136 -8 0 -34 93 -46 163 0 4 22 16 51 26 63 23 149 69 166 89 6 8
-13 1 -44 -17 -91 -51 -177 -82 -183 -65 -4 10 -14 8 -48 -11 -53 -29 -129
-36 -263 -24 -107 10 -125 20 -125 67 0 20 4 23 23 18 12 -4 83 -9 157 -12
115 -5 150 -3 239 15 226 47 341 142 341 281 0 67 -29 131 -77 167 -47 36
-132 43 -183 15z m-1992 -367 c0 -29 0 -29 -8 -5 -4 14 -8 36 -8 50 -1 23 0
23 8 5 5 -11 8 -33 8 -50z m792 -12 c0 -7 -9 -13 -21 -13 -15 0 -19 4 -15 16
3 9 6 23 6 32 1 15 3 14 15 -2 8 -11 15 -26 15 -33z m-60 -47 c0 -8 -8 -12
-23 -9 -27 5 -74 -28 -63 -45 19 -31 96 4 96 43 0 8 7 15 16 15 9 0 12 -5 8
-12 -5 -9 -3 -9 9 1 12 9 31 11 64 7 46 -7 356 -67 360 -70 1 -1 -6 -31 -17
-67 -11 -35 -20 -66 -20 -67 0 -2 18 11 40 28 29 23 40 39 39 58 0 25 -1 26
-9 6 -9 -23 -28 -39 -36 -32 -8 9 19 69 30 65 6 -2 69 -15 139 -28 114 -21
128 -26 133 -46 5 -17 -2 -31 -26 -53 -17 -16 -30 -35 -28 -42 8 -22 36 -20
58 2 19 19 21 29 15 67 l-7 45 44 -7 c24 -4 85 -8 136 -8 55 0 87 -4 78 -9
-10 -6 -13 -18 -9 -42 3 -18 1 -36 -5 -40 -5 -3 -71 -18 -145 -33 l-135 -26
-128 31 c-71 17 -193 50 -272 73 -140 41 -144 43 -158 77 -8 19 -17 33 -20 29
-3 -3 0 -15 6 -27 6 -12 10 -23 8 -25 -2 -3 -26 2 -52 10 -89 27 -280 64 -394
76 -61 7 -111 14 -109 15 7 8 158 35 237 43 128 13 140 13 140 -3z m-515 -66
c-3 -5 -44 -10 -90 -10 -46 0 -96 -5 -111 -10 -26 -10 -44 -7 -31 6 3 3 48 9
99 14 138 11 140 11 133 0z m285 -20 c74 -11 201 -36 281 -56 128 -32 148 -40
158 -61 6 -13 11 -28 11 -32 0 -4 -98 18 -217 51 -120 32 -274 70 -343 84 -69
15 -127 28 -129 30 -12 11 119 2 239 -16z m-419 -26 c10 -13 10 -17 -1 -24
-15 -9 -30 4 -30 28 0 17 15 15 31 -4z m-71 -18 c0 -13 6 -26 13 -29 6 -2 8
-8 4 -13 -10 -10 -47 31 -47 52 0 8 7 14 15 14 9 0 15 -9 15 -24z m36 -23
c-12 -12 -29 15 -21 34 7 17 8 16 18 -5 5 -12 7 -25 3 -29z m1892 -39 c12 -65
12 -67 -12 -89 -17 -16 -44 -26 -81 -30 -54 -7 -55 -7 -56 19 -1 14 -2 31 -3
38 -1 6 18 18 42 26 24 8 41 16 39 18 -2 2 -22 -2 -45 -10 -40 -15 -61 -8 -47
14 6 9 132 78 145 80 3 0 11 -30 18 -66z m-793 -51 c94 -25 179 -49 190 -54
46 -18 -181 9 -305 37 -59 13 -67 18 -77 45 -11 27 -10 30 5 24 9 -4 94 -27
187 -52z m634 -55 c1 -16 -10 -18 -101 -17 -57 0 -112 4 -123 9 -17 7 -16 9
10 10 17 1 68 11 115 23 90 23 97 22 99 -25z m-809 13 c0 -5 -9 -19 -20 -32
-21 -26 -27 -11 -10 22 11 19 30 26 30 10z"/>
<path d="M707 516 c-4 -9 -13 -16 -21 -16 -8 0 -18 -5 -22 -11 -5 -8 1 -10 20
-7 18 4 26 1 26 -8 0 -8 -8 -14 -18 -14 -24 0 -32 -8 -25 -26 4 -12 8 -12 20
-2 11 9 16 9 24 -3 7 -12 9 -12 9 1 1 8 3 29 4 46 4 38 -8 64 -17 40z"/>
<path d="M2775 434 c-27 -85 -30 -90 -54 -86 -33 4 -66 -19 -58 -42 8 -19 46
-21 69 -3 9 6 25 38 36 70 11 32 23 59 28 60 16 4 16 -44 -1 -71 -16 -27 -16
-27 10 2 20 21 25 36 21 55 -3 14 -9 44 -14 66 l-8 40 -29 -91z"/>
</g>
</svg>
