<?xml version="1.0" standalone="no"?>
<!DOCTYPE svg PUBLIC "-//W3C//DTD SVG 20010904//EN"
 "http://www.w3.org/TR/2001/REC-SVG-20010904/DTD/svg10.dtd">
<svg version="1.0" xmlns="http://www.w3.org/2000/svg"
 width="800.000000pt" height="622.000000pt" viewBox="0 0 800.000000 622.000000"
 preserveAspectRatio="xMidYMid meet">

<g transform="translate(0.000000,622.000000) scale(0.100000,-0.100000)"
fill="#000000" stroke="none">
<path d="M1096 5459 c-60 -52 -117 -199 -155 -395 -43 -224 -44 -245 -46 -631
l-2 -382 -99 -82 c-140 -116 -371 -350 -433 -439 -135 -193 -184 -354 -184
-605 0 -284 62 -468 203 -599 107 -98 223 -154 377 -181 148 -26 311 -14 461
33 34 11 62 18 62 17 0 -2 9 -57 20 -122 35 -206 24 -328 -39 -451 -47 -89
-48 -90 -43 -9 4 67 2 80 -22 123 -35 63 -84 100 -153 115 -48 11 -65 10 -118
-4 -158 -41 -265 -163 -265 -302 0 -105 35 -155 160 -231 58 -35 72 -39 130
-39 169 0 345 170 397 382 22 93 22 327 0 448 -9 50 -17 95 -17 101 0 6 25 28
56 48 122 81 213 210 251 356 24 91 23 284 -1 365 -43 143 -124 242 -245 297
-76 35 -196 60 -266 56 -58 -4 -48 -32 -95 264 l-32 197 132 128 c203 197 296
333 342 500 31 114 31 358 0 498 -67 304 -218 575 -320 575 -12 0 -37 -14 -56
-31z m135 -296 c79 -88 181 -340 182 -448 0 -73 -44 -175 -117 -271 -46 -62
-310 -324 -326 -324 -12 0 -23 278 -15 403 13 215 57 450 107 567 51 118 107
142 169 73z m-255 -1643 c15 -91 29 -176 31 -190 3 -22 -4 -28 -59 -54 -90
-42 -184 -139 -234 -240 -37 -76 -39 -85 -39 -175 0 -136 29 -189 158 -294 32
-26 59 -47 61 -47 2 0 -33 37 -79 83 -99 100 -130 157 -129 242 0 46 7 73 28
114 33 63 110 143 169 173 37 19 147 51 154 45 1 -2 14 -57 28 -122 24 -112
123 -511 144 -582 l9 -32 -67 -11 c-98 -18 -306 -8 -406 19 -204 57 -400 191
-459 314 -55 117 -7 288 132 473 65 86 247 267 412 411 123 107 104 124 146
-127z m248 -360 c219 -56 389 -216 373 -351 -9 -73 -69 -180 -136 -241 -53
-49 -175 -117 -188 -105 -8 8 -73 277 -123 505 -23 103 -43 193 -45 200 -6 17
29 15 119 -8z"/>
<path d="M7381 5181 c-61 -116 -148 -238 -252 -355 -112 -127 -159 -246 -159
-404 0 -129 44 -258 113 -332 38 -41 46 -26 19 38 -49 114 -55 311 -13 406 31
72 179 215 289 280 10 6 12 -81 11 -433 -1 -243 -3 -441 -5 -441 -2 0 -22 10
-44 21 -88 46 -240 1 -330 -98 -70 -76 -89 -164 -53 -240 26 -55 64 -73 159
-73 73 0 88 4 152 36 47 23 84 50 106 77 71 88 66 32 72 814 3 390 1 730 -3
758 l-8 49 -54 -103z"/>
<path d="M5298 4624 c-1 -269 0 -537 1 -596 2 -60 0 -108 -3 -108 -4 0 -22 11
-39 24 -43 33 -136 76 -165 76 -31 0 -91 -32 -125 -66 -58 -57 -70 -179 -27
-263 31 -61 78 -84 180 -89 98 -5 165 16 194 60 29 45 34 129 41 637 3 277 8
507 10 511 3 4 44 -32 92 -79 167 -166 325 -230 564 -231 l96 0 6 -142 c4 -79
7 -250 7 -380 l0 -237 -52 24 c-87 41 -186 30 -263 -29 -46 -35 -66 -76 -72
-146 -7 -70 10 -109 73 -171 l45 -44 97 0 c109 0 160 18 196 68 21 28 21 41
24 619 2 325 1 600 -2 612 -5 20 -12 21 -118 22 -94 1 -126 5 -191 28 -169 57
-326 156 -469 295 l-98 94 -2 -489z"/>
<path d="M4351 4770 c-50 -98 -132 -216 -210 -305 -87 -98 -136 -188 -152
-279 -25 -147 18 -317 100 -390 27 -24 26 -15 -1 54 -31 77 -33 286 -4 340 34
62 87 119 170 182 l81 61 3 -373 c1 -205 0 -375 -2 -377 -2 -3 -19 3 -37 12
-24 13 -48 16 -89 12 -199 -18 -332 -238 -207 -343 29 -25 36 -26 112 -22 123
6 203 57 256 159 18 37 19 60 17 686 l-3 648 -34 -65z"/>
<path d="M2670 3278 c0 -150 -3 -289 -6 -308 l-6 -36 -66 4 c-57 3 -72 0 -101
-20 -47 -32 -72 -68 -78 -115 -10 -79 51 -143 137 -143 58 0 103 28 130 79 19
37 20 58 20 291 l0 252 25 -30 c14 -17 39 -32 58 -36 19 -3 43 -15 55 -26 20
-19 42 -77 42 -113 0 -11 5 -15 11 -11 7 4 10 29 7 65 -5 70 -30 109 -79 125
-43 14 -96 76 -110 127 -6 21 -8 41 -6 43 2 2 19 -18 37 -45 24 -35 48 -55 82
-71 59 -27 96 -70 104 -122 9 -50 24 -31 24 30 0 70 -40 127 -97 138 -43 8
-70 37 -99 108 -28 70 -40 86 -65 86 -18 0 -19 -13 -19 -272z"/>
<path d="M3648 2986 c-54 -19 -86 -43 -109 -79 -20 -31 -21 -42 -15 -304 3
-150 3 -273 1 -273 -3 0 -16 7 -28 15 -12 8 -53 21 -90 29 -76 15 -100 32
-129 91 -17 33 -20 51 -14 112 3 40 13 89 21 109 8 20 15 42 15 48 -1 21 -40
-39 -61 -94 -19 -50 -20 -61 -9 -131 14 -91 61 -183 109 -216 18 -12 55 -29
84 -39 77 -25 103 -47 122 -104 9 -28 21 -48 26 -44 5 3 7 48 4 102 -3 53 -7
191 -10 305 -5 203 -5 207 14 197 11 -5 47 -10 80 -10 50 0 65 4 91 26 85 72
94 205 15 254 -37 23 -65 25 -117 6z"/>
<path d="M2020 2301 c0 -105 -2 -191 -4 -191 -2 0 -20 7 -40 15 -35 15 -37 15
-61 -9 -34 -34 -33 -78 1 -105 30 -24 52 -26 87 -10 32 15 37 45 37 240 l0
156 42 -39 c41 -37 104 -63 173 -70 l30 -3 3 -117 3 -116 -40 5 c-33 5 -44 1
-65 -20 -32 -32 -33 -67 -3 -95 30 -28 80 -29 107 -2 19 19 20 33 20 220 l0
200 -40 0 c-60 0 -139 34 -197 86 l-53 46 0 -191z"/>
</g>
</svg>
