<?xml version="1.0" standalone="no"?>
<!DOCTYPE svg PUBLIC "-//W3C//DTD SVG 20010904//EN"
 "http://www.w3.org/TR/2001/REC-SVG-20010904/DTD/svg10.dtd">
<svg version="1.0" xmlns="http://www.w3.org/2000/svg"
 width="300.000000pt" height="300.000000pt" viewBox="0 0 300.000000 300.000000"
 preserveAspectRatio="xMidYMid meet">
<metadata>
Created by potrace 1.10, written by Peter Selinger 2001-2011
</metadata>
<g transform="translate(0.000000,300.000000) scale(0.100000,-0.100000)"
fill="#000000" stroke="none">
<path d="M990 2338 c-36 -39 -44 -93 -45 -299 l0 -196 -75 -80 c-86 -91 -123
-153 -146 -244 -49 -192 71 -349 267 -349 31 0 49 -5 52 -14 14 -35 17 -202 5
-235 -17 -46 -59 -76 -108 -76 -52 0 -80 27 -80 77 l0 38 38 -6 c34 -5 42 -3
60 21 26 33 27 53 6 83 -18 27 -78 30 -112 6 -74 -51 -68 -182 10 -228 39 -24
114 -23 146 1 54 41 67 69 67 151 0 42 -3 102 -7 132 l-8 55 47 19 c126 52
183 194 126 311 -37 74 -113 125 -187 125 l-44 0 -4 58 c-4 56 -3 58 50 122
83 102 106 158 110 267 5 116 -16 189 -68 245 -42 43 -70 48 -100 16z m74 -74
c17 -32 21 -56 20 -129 -1 -49 -6 -103 -13 -120 -16 -40 -74 -125 -85 -125 -5
0 -7 67 -3 158 6 159 26 267 49 260 7 -3 21 -22 32 -44z m-27 -401 c-45 -65
-167 -185 -167 -165 0 5 14 21 31 38 17 16 49 55 72 86 23 32 50 61 60 64 9 3
17 10 17 16 0 6 3 8 6 5 4 -4 -5 -24 -19 -44z m-67 -192 c0 -45 -3 -50 -39
-74 -73 -48 -102 -157 -61 -224 21 -36 48 -48 30 -14 -25 47 -4 121 46 160 35
28 44 26 44 -6 0 -30 37 -266 46 -295 9 -28 -87 -24 -152 6 -116 54 -145 169
-76 308 30 61 134 188 153 188 5 0 9 -22 9 -49z m140 -151 c31 -22 56 -62 71
-114 18 -61 -27 -148 -93 -182 -16 -9 -31 -14 -32 -12 -2 2 -11 68 -20 148
-10 80 -20 156 -23 169 -6 23 -4 24 31 18 20 -3 50 -15 66 -27z m-190 -490
c20 -12 5 -26 -40 -35 -33 -7 -34 -7 -20 11 28 35 37 39 60 24z"/>
<path d="M1708 2030 c-167 -30 -321 -100 -492 -224 -91 -66 -67 -72 32 -8 108
69 242 135 342 167 113 37 278 46 366 20 141 -40 254 -132 254 -204 0 -48 -42
-114 -103 -164 -42 -34 -61 -67 -39 -67 20 0 133 115 152 156 12 25 24 43 27
40 11 -11 -20 -117 -47 -159 -15 -25 -53 -64 -84 -87 -35 -27 -56 -50 -56 -62
0 -19 3 -18 38 7 58 44 122 107 139 138 25 49 25 22 0 -41 -34 -82 -77 -142
-131 -183 -48 -36 -66 -81 -24 -58 49 26 132 116 160 174 l30 60 -7 -50 c-8
-62 -47 -151 -83 -188 -15 -16 -46 -42 -69 -58 -24 -17 -43 -36 -43 -44 0 -21
7 -19 61 20 57 40 61 35 19 -23 -37 -51 -91 -92 -173 -129 -135 -61 -294 -142
-326 -167 -46 -34 -71 -75 -70 -111 l1 -30 8 33 c16 67 87 116 300 208 146 63
199 92 243 133 34 31 67 91 67 121 0 12 11 36 25 54 49 64 59 109 59 271 0 89
-5 167 -12 191 -28 95 -155 205 -281 245 -74 23 -212 32 -283 19z"/>
<path d="M1635 1895 c-14 -13 -25 -33 -25 -45 0 -51 79 -87 131 -60 18 10 19
6 19 -160 0 -107 4 -170 10 -170 6 0 10 76 10 209 l0 210 -26 20 c-37 29 -89
27 -119 -4z m90 -35 c17 -19 17 -20 -9 -31 -22 -11 -29 -10 -43 4 -13 13 -14
19 -3 31 17 21 33 20 55 -4z"/>
<path d="M2013 1893 c-23 -9 -14 -20 32 -38 64 -24 105 -68 105 -111 0 -19 5
-34 10 -34 6 0 10 17 10 39 0 49 -33 99 -85 128 -41 23 -50 25 -72 16z"/>
<path d="M1442 1460 c2 -132 2 -240 0 -240 -1 0 -14 7 -28 16 -17 12 -39 15
-75 12 -65 -7 -103 -41 -103 -92 0 -96 144 -136 215 -60 l24 26 -2 238 -1 238
65 -61 c78 -75 88 -96 68 -142 -16 -41 -13 -43 15 -13 13 14 20 35 20 61 0 36
-7 46 -73 111 -47 45 -78 85 -86 109 -7 21 -19 37 -27 37 -13 0 -15 -33 -12
-240z m-38 -260 c34 -13 36 -62 4 -84 -47 -33 -128 -10 -128 36 0 46 64 71
124 48z"/>
<path d="M2018 1443 c4 -189 4 -196 -14 -188 -81 34 -154 1 -154 -69 0 -64 80
-97 149 -61 16 8 31 22 35 30 3 9 6 122 6 251 0 184 -3 234 -13 234 -10 0 -12
-41 -9 -197z m-37 -223 c26 -14 24 -36 -6 -56 -25 -16 -63 -12 -77 10 -11 16
-10 23 8 40 18 18 47 20 75 6z"/>
<path d="M1955 1511 c-22 -16 -132 -81 -245 -146 -213 -122 -228 -131 -218
-141 3 -3 53 21 110 54 56 33 169 97 251 142 106 60 147 88 147 102 0 22 3 23
-45 -11z"/>
<path d="M1816 1316 c-170 -98 -279 -175 -291 -205 -3 -8 9 -2 27 13 63 51
164 113 305 187 101 52 143 79 143 92 0 9 -1 17 -2 17 -2 -1 -83 -47 -182
-104z"/>
<path d="M1706 1120 c-242 -148 -350 -251 -375 -360 -12 -54 2 -51 17 4 24 93
148 206 352 322 127 71 121 67 112 81 -6 9 -35 -3 -106 -47z"/>
<path d="M1725 1042 c-162 -87 -250 -154 -282 -216 -34 -66 -7 -150 57 -176
47 -19 115 -6 247 46 98 39 130 48 185 48 37 1 63 5 59 9 -17 17 -109 8 -182
-19 -182 -66 -207 -73 -252 -74 -63 0 -107 39 -107 95 0 90 89 168 312 275 68
32 94 49 83 54 -24 9 -23 10 -120 -42z"/>
<path d="M1226 1017 c-35 -46 -56 -100 -56 -144 0 -37 35 -131 45 -121 3 3 -4
25 -15 49 -32 71 -21 133 39 208 18 23 28 41 22 41 -5 0 -21 -15 -35 -33z"/>
</g>
</svg>
